# File created by Blade
# Date/Time:  Wed Jan 21 19:13:57 2015
# Frame Rate: 120.000 fps
#------------------------------------------------------
:FULLY-SPECIFIED
:DEGREES
1086
root -1.217457 32.911642 -3.825827 45.507933 0.014338 -2.401338
RightUpLeg -38.997163 -4.008887 6.789032
RightLeg -3.168774 -0.000000 0.000000
RightFoot -8.006656 -4.798141 15.423336
RightToeBase 19.762772 -0.000000 -0.000000
LeftUpLeg -40.549616 7.849976 -4.509862
LeftLeg 1.135710 -0.000000 -0.000000
LeftFoot -9.791609 -0.894086 -7.010241
LeftToeBase 8.950144 -0.000000 -0.000000
Spine -46.952468 1.861127 -0.374088
RightShoulder -18.961137 14.307452 -43.355646
RightArm 2.010985 -20.437472 42.474340
RightForeArm 4.781032 -0.000000 -7.737553
RightHand 9.928114 -0.000000 0.851791
RightHandThumb1 -24.326973 -0.000000 -32.862282
LeftShoulder -14.224640 5.148194 38.682135
LeftArm 18.183269 -17.882260 -35.145539
LeftForeArm 19.472116 -0.000000 4.273510
LeftHand -28.839484 -0.000000 10.243333
LeftHandThumb1 -26.253704 0.000000 33.147579
Head 0.690054 -2.689249 8.324131
1087
root -1.227391 32.903045 -3.821630 45.446786 0.004692 -2.302857
RightUpLeg -38.953903 -4.115834 6.604957
RightLeg -3.138888 -0.000000 0.000000
RightFoot -7.782152 -4.342423 16.151000
RightToeBase 19.336408 -0.000000 -0.000000
LeftUpLeg -40.408116 7.578249 -4.365684
LeftLeg 1.069489 -0.000000 -0.000000
LeftFoot -9.883158 -0.720043 -6.938772
LeftToeBase 9.024706 -0.000000 -0.000000
Spine -46.936459 1.827646 -0.381854
RightShoulder -19.092734 14.308826 -43.627134
RightArm 2.104077 -20.551010 41.930403
RightForeArm 4.647626 -0.000000 -7.790384
RightHand 9.793418 -0.000000 0.855053
RightHandThumb1 -24.326973 -0.000000 -32.862282
LeftShoulder -14.401658 5.244662 38.696267
LeftArm 18.040243 -18.582905 -34.639200
LeftForeArm 19.501207 -0.000000 4.486255
LeftHand -28.974215 0.000000 10.585846
LeftHandThumb1 -26.253704 0.000000 33.147579
Head 0.757059 -2.660727 7.965823
1088
root -1.241644 32.892078 -3.816206 45.349159 0.015111 -2.200970
RightUpLeg -38.830758 -4.216250 6.419621
RightLeg -3.187066 -0.000000 0.000000
RightFoot -7.618151 -3.937427 16.970640
RightToeBase 18.994842 -0.000000 -0.000000
LeftUpLeg -40.224994 7.302143 -4.204749
LeftLeg 0.996678 -0.000000 -0.000000
LeftFoot -9.973970 -0.591419 -7.003122
LeftToeBase 9.085209 -0.000000 -0.000000
Spine -46.882132 1.769677 -0.381843
RightShoulder -19.244863 14.298520 -43.888292
RightArm 2.241794 -20.743737 41.463742
RightForeArm 4.584457 -0.000000 -7.994527
RightHand 10.039517 -0.000000 0.934397
RightHandThumb1 -24.326973 -0.000000 -32.862282
LeftShoulder -14.554464 5.142068 38.782633
LeftArm 17.730287 -19.166434 -34.224534
LeftForeArm 19.606650 -0.000000 4.845470
LeftHand -29.315959 -0.000000 11.118690
LeftHandThumb1 -26.253704 0.000000 33.147579
Head 0.814652 -2.639500 7.625020
1089
root -1.256561 32.879833 -3.809745 45.252137 0.071678 -2.064090
RightUpLeg -38.689116 -4.375594 6.284466
RightLeg -3.285277 -0.000000 0.000000
RightFoot -7.527677 -3.646811 17.737652
RightToeBase 18.897548 -0.000000 -0.000000
LeftUpLeg -40.050463 7.003755 -4.065043
LeftLeg 0.928272 -0.000000 -0.000000
LeftFoot -10.069667 -0.515381 -7.150327
LeftToeBase 9.216738 -0.000000 -0.000000
Spine -46.831514 1.664741 -0.364189
RightShoulder -19.352146 14.376636 -44.174343
RightArm 2.214092 -20.977884 41.075647
RightForeArm 4.509813 0.000000 -7.991269
RightHand 9.492117 -0.000000 1.228169
RightHandThumb1 -24.326973 -0.000000 -32.862282
LeftShoulder -14.690172 5.001904 38.852868
LeftArm 17.394285 -19.628616 -33.826482
LeftForeArm 19.894199 0.000000 5.243600
LeftHand -29.691569 -0.000000 11.494173
LeftHandThumb1 -26.253704 0.000000 33.147579
Head 0.870755 -2.587242 7.251629
1090
root -1.271839 32.866513 -3.802903 45.145130 0.140611 -1.899620
RightUpLeg -38.529932 -4.581056 6.169478
RightLeg -3.396391 -0.000000 0.000000
RightFoot -7.499285 -3.353066 18.329292
RightToeBase 18.828003 -0.000000 -0.000000
LeftUpLeg -39.809307 6.568956 -3.841006
LeftLeg 0.780071 -0.000000 -0.000000
LeftFoot -10.132453 -0.330730 -7.318679
LeftToeBase 9.246111 -0.000000 -0.000000
Spine -46.767811 1.539936 -0.366138
RightShoulder -19.460960 14.379944 -44.438094
RightArm 2.229145 -20.991642 40.737433
RightForeArm 4.409651 -0.000000 -8.039639
RightHand 9.164433 0.000000 1.560121
RightHandThumb1 -24.326973 -0.000000 -32.862282
LeftShoulder -14.883382 4.935130 38.866922
LeftArm 17.267745 -20.288658 -33.575658
LeftForeArm 20.466521 0.000000 5.631344
LeftHand -29.922269 0.000000 11.625170
LeftHandThumb1 -26.253704 0.000000 33.147579
Head 0.915212 -2.535650 6.887886
1091
root -1.289117 32.850778 -3.795733 45.001659 0.243779 -1.711571
RightUpLeg -38.346608 -4.881260 6.139783
RightLeg -3.476939 -0.000000 0.000000
RightFoot -7.575249 -3.042253 18.584753
RightToeBase 18.982695 -0.000000 -0.000000
LeftUpLeg -39.613125 6.302029 -3.776576
LeftLeg 0.741129 -0.000000 -0.000000
LeftFoot -10.248179 -0.378916 -7.478147
LeftToeBase 9.386103 -0.000000 -0.000000
Spine -46.671257 1.404056 -0.389969
RightShoulder -19.599023 14.416947 -44.739973
RightArm 2.204333 -21.010848 40.505332
RightForeArm 4.499468 0.000000 -8.232610
RightHand 9.272822 -0.000000 1.799340
RightHandThumb1 -24.326973 -0.000000 -32.862282
LeftShoulder -15.011160 4.724261 38.910464
LeftArm 17.100377 -20.365251 -33.197761
LeftForeArm 20.697767 -0.000000 5.767632
LeftHand -30.022053 -0.000000 11.888132
LeftHandThumb1 -26.253704 0.000000 33.147579
Head 0.972063 -2.544615 6.506793
1092
root -1.307801 32.836148 -3.790085 44.921636 0.360961 -1.514817
RightUpLeg -38.248265 -5.193292 6.148313
RightLeg -3.513023 -0.000000 0.000000
RightFoot -7.698526 -2.762427 18.794042
RightToeBase 19.189852 -0.000000 -0.000000
LeftUpLeg -39.483041 6.045529 -3.735710
LeftLeg 0.688774 -0.000000 -0.000000
LeftFoot -10.334371 -0.478843 -7.712062
LeftToeBase 9.492285 -0.000000 -0.000000
Spine -46.643810 1.261703 -0.417378
RightShoulder -19.699326 14.435212 -45.016930
RightArm 2.135384 -20.868398 40.296820
RightForeArm 4.404966 -0.000000 -8.387242
RightHand 9.180411 -0.000000 2.298924
RightHandThumb1 -24.326973 -0.000000 -32.862282
LeftShoulder -15.107972 4.645762 38.895634
LeftArm 16.980347 -20.677908 -32.918589
LeftForeArm 21.133230 0.000000 6.044639
LeftHand -30.179605 -0.000000 11.678135
LeftHandThumb1 -26.253704 0.000000 33.147579
Head 1.036322 -2.570731 6.114551
1093
root -1.329278 32.821463 -3.786049 44.834619 0.492512 -1.311833
RightUpLeg -38.125443 -5.468794 6.128784
RightLeg -3.565746 -0.000000 0.000000
RightFoot -7.826997 -2.535317 18.985432
RightToeBase 19.219384 -0.000000 -0.000000
LeftUpLeg -39.358727 5.776402 -3.677891
LeftLeg 0.664228 -0.000000 -0.000000
LeftFoot -10.485484 -0.606635 -7.923236
LeftToeBase 9.712564 -0.000000 -0.000000
Spine -46.610524 1.111611 -0.473025
RightShoulder -19.789776 14.427726 -45.216292
RightArm 2.046267 -20.594234 40.090864
RightForeArm 4.440618 -0.000000 -8.494637
RightHand 8.872564 0.000000 2.791856
RightHandThumb1 -24.326973 -0.000000 -32.862282
LeftShoulder -15.189300 4.510031 38.913519
LeftArm 16.950124 -20.919836 -32.704356
LeftForeArm 21.526405 -0.000000 6.120797
LeftHand -30.184991 -0.000000 11.361622
LeftHandThumb1 -26.253704 0.000000 33.147579
Head 1.119229 -2.637223 5.789313
1094
root -1.354244 32.806314 -3.782112 44.754868 0.636255 -1.095728
RightUpLeg -37.954537 -5.664594 6.061024
RightLeg -3.716918 -0.000000 0.000000
RightFoot -7.980578 -2.504724 18.970761
RightToeBase 19.280019 -0.000000 -0.000000
LeftUpLeg -39.257061 5.516781 -3.629372
LeftLeg 0.674584 -0.000000 -0.000000
LeftFoot -10.643551 -0.807734 -8.208568
LeftToeBase 9.822416 -0.000000 -0.000000
Spine -46.591861 0.942238 -0.538267
RightShoulder -19.918861 14.446817 -45.454403
RightArm 2.009727 -20.413466 39.979021
RightForeArm 4.428325 -0.000000 -8.739933
RightHand 8.713971 -0.000000 3.109332
RightHandThumb1 -24.326973 -0.000000 -32.862282
LeftShoulder -15.276566 4.483858 38.882743
LeftArm 17.070928 -20.799516 -32.412345
LeftForeArm 21.488282 0.000000 5.990318
LeftHand -30.119841 -0.000000 10.949979
LeftHandThumb1 -26.253704 0.000000 33.147579
Head 1.253467 -2.673739 5.481379
